<?xml version="1.0" encoding="utf-8"?>
<!-- Generator: Adobe Illustrator 24.3.0, SVG Export Plug-In . SVG Version: 6.00 Build 0)  -->
<svg version="1.1" id="Layer_1" xmlns="http://www.w3.org/2000/svg" xmlns:xlink="http://www.w3.org/1999/xlink" x="0px" y="0px"
	 viewBox="0 0 1080 1080" style="enable-background:new 0 0 1080 1080;" xml:space="preserve">
<g>
	<g>
		<g>
			<path d="M167.6,149.92h243.85v19.71c-13.29-4.32-32.36-6.25-72.81-6.25H308.6v311.97h-38.72V163.38h-43.92
				c-30.62,0-46.8,2.4-58.36,6.25V149.92z"/>
		</g>
		<g>
			<path d="M910.32,1009.72H169.68c-54.8,0-99.39-37.09-99.39-82.68V152.97c0-45.59,44.59-82.68,99.39-82.68h740.65
				c54.8,0,99.39,37.09,99.39,82.68v774.07C1009.72,972.62,965.13,1009.72,910.32,1009.72z M169.68,84.77
				c-45.2,0-81.97,30.59-81.97,68.19v774.07c0,37.6,36.77,68.19,81.97,68.19h740.65c45.2,0,81.97-30.59,81.97-68.19V152.97
				c0-37.6-36.77-68.19-81.97-68.19H169.68z"/>
		</g>
		<g>
			<path d="M184.32,878.18c26.58,29.8,56.63,39.9,90.72,39.9c54.9,0,82.06-26.44,82.06-62.97c0-33.65-23.69-46.63-86.1-80.28
				c-50.85-27.4-84.94-51.92-84.94-93.74c0-45.66,41.02-81.72,105.16-81.72c43.34,0,70.5,16.83,92.46,31.24l-13.29,16.35
				c-23.69-26.44-49.12-34.13-76.28-34.13c-49.69,0-73.96,25-73.96,58.16c0,42.3,39.87,58.17,91.88,86.05
				c49.12,26.44,79.75,47.11,79.75,89.89c0,52.87-46.23,84.6-113.26,84.6c-52.59,0-80.32-19.23-107.48-37.02L184.32,878.18z"/>
			<path d="M768.51,928.18h-38.72V641.2L604.98,928.18h-1.15L480.74,685.42v194.2c0,25.48,2.89,38.94,7.51,48.55h-23.69V602.74
				h16.18l134.06,263.9l114.99-263.9h38.72V928.18z"/>
		</g>
	</g>
</g>
</svg>
